PathFileType	4	(X/Y/Z)	/Users/mathieubourgeois/Desktop/Analyse/Traitement/Sujet_05/Transformed_Static_Sujet_05_Tpose.trc
DataRate	CameraRate	NumFrames	NumMarkers	Units	OrigDataRate	OrigDataStartFrame	OrigNumFrames
120.000000	120.000000	4	36	mm	120.000000	58	232
Frame#	Time	RFHD			RANE			STRN			LANI			LKNE			T10			RHUM			RWRB			C7			LFWT			LTOE			RTOE			LWRA			LBWT			RBWT			RFWT			LKNI			RKNI			RKNE			LANE			RANI			LHEE			RHEE			LHUM			LRAD			RRAD			RWRA			LWRB			LFHD			LBHD			RBHD			RSHO			LSHO			CLAV			LCAR			RCAR			
		X1	Y1	Z1	X2	Y2	Z2	X3	Y3	Z3	X4	Y4	Z4	X5	Y5	Z5	X6	Y6	Z6	X7	Y7	Z7	X8	Y8	Z8	X9	Y9	Z9	X10	Y10	Z10	X11	Y11	Z11	X12	Y12	Z12	X13	Y13	Z13	X14	Y14	Z14	X15	Y15	Z15	X16	Y16	Z16	X17	Y17	Z17	X18	Y18	Z18	X19	Y19	Z19	X20	Y20	Z20	X21	Y21	Z21	X22	Y22	Z22	X23	Y23	Z23	X24	Y24	Z24	X25	Y25	Z25	X26	Y26	Z26	X27	Y27	Z27	X28	Y28	Z28	X29	Y29	Z29	X30	Y30	Z30	X31	Y31	Z31	X32	Y32	Z32	X33	Y33	Z33	X34	Y34	Z34	X35	Y35	Z35	X36	Y36	Z36	

59	0.4833333333333333	-718.0532836914062	1634.912475585938	351.1660461425779	-822.9866943359375	75.34280395507814	193.6620635986327	-630.3118896484375	1205.424926757812	369.2331542968749	-536.803955078125	83.5258255004883	227.1676483154296	-465.0610961914063	480.6199035644531	254.8639984130859	-644.347900390625	1204.717895507812	144.151397705078	-1065.617431640625	1362.82861328125	223.3284759521482	-1299.0634765625	1442.809204101562	277.2017517089841	-643.6265869140625	1434.827270507812	186.267868041992	-512.9330444335938	930.0355224609375	333.3639526367186	-472.5344848632813	34.34666061401369	385.4885559082031	-829.7997436523438	37.06725311279299	391.2900390624999	46.01395416259763	1379.78564453125	235.6534118652343	-583.925537109375	957.692626953125	162.3985290527342	-717.4275512695312	958.4610595703125	167.6945495605467	-752.755126953125	922.6591186523438	342.4825439453123	-568.2678833007812	445.9917297363281	244.3685607910155	-703.7754516601562	426.4390258789062	260.5338745117186	-801.00244140625	476.1697387695312	261.4042358398436	-463.7708129882812	87.0283660888672	186.1801300048828	-747.4873046875	74.00572204589845	239.5773468017577	-511.3731079101562	44.29273223876954	142.1239929199218	-772.044189453125	38.08977127075196	147.4663696289062	-208.9024505615235	1379.764526367188	194.2539520263671	-219.549301147461	1331.151245117188	247.3373718261718	-1059.360595703125	1324.606567382812	284.5193786621092	-1313.088989257812	1373.943115234375	259.2348022460935	32.15364837646482	1448.919555664062	239.6285552978515	-569.4943237304688	1646.568481445312	354.1638793945311	-553.788330078125	1572.661743164062	219.7826843261717	-688.5223388671875	1566.159057617188	193.628204345703	-790.9192504882812	1442.027221679688	236.3849334716795	-503.4638366699219	1441.321411132812	222.4119720458983	-640.4721069335938	1380.370849609375	319.6343994140624	116.8320922851562	1433.906372070312	209.1287078857421	-1393.374145507812	1421.602172851562	237.9621124267576	
60	0.4916666666666666	-718.0300903320312	1634.889892578125	351.2672424316404	-822.9977416992188	75.35119628906251	193.666290283203	-630.2783813476562	1205.400634765625	369.2573852539061	-536.8096923828125	83.52146148681642	227.1661834716796	-465.0601501464844	480.6198425292969	254.8435058593749	-644.3396606445312	1204.721923828125	144.1777191162108	-1065.5859375	1362.73974609375	223.3484039306638	-1299.053466796875	1442.668090820312	277.2054138183591	-643.5956420898438	1434.832763671875	186.340621948242	-512.9193725585938	930.0277099609375	333.3883972167968	-472.5317077636719	34.35100173950197	385.4839477539062	-829.8024291992188	37.06594848632815	391.2856140136718	46.04474639892575	1379.721313476562	235.6979675292968	-583.9194946289062	957.7042236328125	162.4308319091795	-717.4081420898438	958.4918212890625	167.7162475585936	-752.7469482421875	922.6492309570312	342.5086669921873	-568.2708129882812	445.990966796875	244.3272552490234	-703.7662353515625	426.4328002929688	260.5226745605468	-800.9976806640625	476.16796875	261.397735595703	-463.7722778320312	87.02892303466798	186.1729278564453	-747.489990234375	73.99810791015626	239.5834197998046	-511.3689575195312	44.27746200561524	142.1154632568359	-772.04052734375	38.08067321777344	147.4668426513671	-208.8770599365235	1379.742553710938	194.2759552001952	-219.5248565673828	1331.108520507812	247.3885040283202	-1059.314697265625	1324.526123046875	284.5499877929686	-1313.068115234375	1373.771850585938	259.2538757324216	32.19154357910153	1448.85888671875	239.6459503173827	-569.458740234375	1646.554565429688	354.2821044921873	-553.7521362304688	1572.678955078125	219.8625183105467	-688.486572265625	1566.16796875	193.7210998535155	-790.8970947265625	1442.016967773438	236.4349975585936	-503.4275817871094	1441.315307617188	222.4451751708983	-640.4425048828125	1380.3583984375	319.6712341308593	116.8750686645508	1433.822509765625	209.170425415039	-1393.35400390625	1421.4384765625	237.951721191406	
61	0.5	-717.98193359375	1634.85888671875	351.397521972656	-823.0006713867188	75.35639953613283	193.6674346923827	-630.2640380859375	1205.380126953125	369.2765502929686	-536.8084716796875	83.53640747070314	227.1707305908203	-465.0476379394532	480.6178894042969	254.803726196289	-644.3196411132812	1204.736206054688	144.223678588867	-1065.542602539062	1362.654418945312	223.4178009033201	-1299.037231445312	1442.525146484375	277.1967773437497	-643.5580444335938	1434.838012695312	186.3855590820311	-512.8936157226562	930.009033203125	333.4089050292968	-472.5351562500001	34.3451728820801	385.4782714843749	-829.7998046875	37.06637954711916	391.2798767089843	46.07029724121091	1379.655395507812	235.7315979003905	-583.8848876953125	957.7197875976562	162.4599761962889	-717.3964233398438	958.5205078125	167.7404327392577	-752.7332153320312	922.63671875	342.5199279785155	-568.2565307617188	445.9792175292969	244.2887268066405	-703.759765625	426.439453125	260.5088500976561	-800.9916381835938	476.1729431152344	261.4206542968748	-463.7677001953125	87.01760101318361	186.1671600341796	-747.4757690429688	73.98805999755861	239.5819244384765	-511.3651123046875	44.27366256713868	142.1096954345703	-772.0427856445312	38.08668518066407	147.4733123779296	-208.8311462402344	1379.705322265625	194.3256530761718	-219.4942016601563	1331.07666015625	247.4248962402343	-1059.2626953125	1324.454956054688	284.5880432128905	-1313.004516601562	1373.598266601562	259.2245178222654	32.2409973144531	1448.805053710938	239.6707458496093	-569.4205932617188	1646.530517578125	354.3726806640623	-553.7124633789062	1572.691528320312	219.9422302246092	-688.4501953125	1566.193359375	193.8084869384764	-790.8741455078125	1442.016479492188	236.4803161621092	-503.4010314941406	1441.30712890625	222.5072479248045	-640.421142578125	1380.341430664062	319.7176513671874	116.9095840454101	1433.75732421875	209.2112274169921	-1393.330688476562	1421.257202148438	237.9474639892576	
62	0.5083333333333333	-717.9486694335938	1634.840698242188	351.5218200683591	-822.9923706054688	75.35105895996095	193.6628417968749	-630.2442016601562	1205.357299804688	369.3030395507811	-536.79931640625	83.52806854248048	227.1607666015624	-465.0221862792969	480.62109375	254.7711944580077	-644.2941284179688	1204.734741210938	144.2303771972655	-1065.49267578125	1362.576416015625	223.4532928466795	-1299.035522460938	1442.383178710938	277.2284851074216	-643.5255126953125	1434.837158203125	186.447555541992	-512.890625	929.9976196289062	333.4347839355468	-472.5226440429688	34.34618377685549	385.4870910644531	-829.79931640625	37.06396865844729	391.276153564453	46.10049819946286	1379.606689453125	235.7553710937499	-583.8670043945312	957.74169921875	162.4775543212889	-717.3756103515625	958.5323486328125	167.7472229003905	-752.7265014648438	922.6307373046875	342.544219970703	-568.2467041015625	445.988525390625	244.2575225830077	-703.7525024414062	426.4394836425781	260.5201110839843	-800.9712524414062	476.1846008300781	261.4319763183592	-463.7585754394531	87.00844573974611	186.1729583740234	-747.4791259765625	73.99620819091798	239.5936737060546	-511.3677368164062	44.26796340942384	142.1145935058593	-772.0299682617188	38.07844924926759	147.4649658203124	-208.8225708007813	1379.690307617188	194.3523406982421	-219.4715728759766	1331.052001953125	247.4557952880858	-1059.222412109375	1324.3955078125	284.6334533691405	-1312.9501953125	1373.439697265625	259.2127990722654	32.27461624145505	1448.74169921875	239.6950378417968	-569.3850708007812	1646.504150390625	354.4874877929686	-553.6790161132812	1572.698608398438	220.0306854248045	-688.4230346679688	1566.21142578125	193.8975524902342	-790.8477172851562	1442.007934570312	236.5296783447264	-503.3587951660156	1441.29638671875	222.5558471679686	-640.386474609375	1380.3251953125	319.7747192382811	116.9512405395508	1433.700927734375	209.217300415039	-1393.318359375	1421.082885742188	237.9319610595701	
